<?xml version="1.0" encoding="UTF-8" standalone="no"?>
<svg
   width="802.77277"
   height="808.91937"
   version="1.1"
   id="svg19"
   xmlns="http://www.w3.org/2000/svg"
   xmlns:svg="http://www.w3.org/2000/svg">
  <defs
     id="defs19" />
  <path
     fill="#4a251e"
     d="M 442.02145,0.03800037 447.45345,3.6621094e-7 C 492.88145,0.04020037 548.46345,10.0446 581.68345,43.6554 c 18.772,18.9926 14.412,31.5788 14.948,56.3836 0.254,11.8 0.986,23.49 0.97,35.316 19.952,-7.14 34.346,-21.462 49.194,-35.71 12.074,-11.5832 32.138,-8.5276 42.864,3.13 34.984,38.014 -7.612,117.478 -71.778,114.642 2.494,37.66 10.2,46.528 24.332,77.044 18.602,40.178 15.554,70.626 9.938,111.738 34.516,35.328 57.628,55.788 102.554,80.958 26.512,14.852 50.654,21.158 47.844,58.6 -1.694,22.568 -16.2,35.842 -32.302,49.628 -0.69,13.724 -7.556,30.798 -11.112,44.402 l -7.696,29.572 c -4.786,17.874 -11.072,35.984 -33.67,36.326 -12.128,0.182 -23.046,-8.602 -33.254,-14.016 -21.348,-11.324 -49.372,-18.386 -49.094,-47.58 0.17,-17.894 12.432,-26.018 24.872,-36.044 l 24.522,-19.75 c 27.928,-22.428 46.734,-40.194 77.33,-8.056 11.552,-9.056 22.494,-19.646 23.572,-35.298 1.704,-24.766 -13.496,-30.052 -32.062,-39.584 -39.672,-20.366 -77.698,-47.462 -107.158,-81.014 -18.854,68.616 -92.382,137.31 -155.04,166.836 v 151.74 c 41.176,-23.644 90.462,-26.884 125.724,9.844 7.366,7.67 15.054,18.798 14.628,29.912 -1.244,32.546 -41.594,25.636 -62.86,25.62 -23.72,-0.018 -47.57,0.608 -71.266,-0.006 l -0.718,0.006 c -16.074,0.056 -29.678,-10.12 -29.94,-26.994 -0.16,-10.166 8.03,-17.026 8.312,-27.026 0.286,-10.15 -0.194,-20.502 -0.196,-30.674 l 0.002,-83.228 c -0.004,-14.134 -0.414,-28.324 -0.004,-42.448 -19.708,3.634 -25.834,6.29 -47.238,0 l -0.046,139.848 c -0.08,24.806 1.05,14.438 8.24,34.45 6.208,17.28 -5.988,35.128 -24.44,36.134 -6.402,0.348 -13.054,-0.066 -19.492,-0.068 l -76.738,0.034 c -17.848,0.088 -39.046,1.906 -45.138,-20.042 -10.22,-36.826 49.47,-62.786 79.666,-64.26 23.948,-1.168 41.204,5.836 61.6,17.382 V 591.179 c -15.188,-4.79 -29.424,-14.468 -43.498,-21.772 -5.282,16.268 -12.214,32.626 -21.49,47.034 C 254.84145,758.923 38.022249,712.859 4.0686493,552.573 -14.853551,463.247 33.683849,370.673 119.33745,337.985 c 14.634,-5.586 29.5,-8.87 44.776,-12.088 1.106,-5.834 0.106,-12.364 0.05,-18.308 -0.5,-53.074 3.28,-99.876 66.432,-110.474 -10.038,-9.354 -18.482,-18.642 -24.116,-31.352 -9.48,-21.394 -11.464,-61.378 14.864,-72.495 20.858,-8.8082 31.274,10.311 44.954,21.301 10.298,8.272 21.43,15.598 33.604,20.786 0.002,-16.172 -1.886,-56.556 2.554,-69.7528 16.67,-49.5482 95.054,-63.7711996 139.566,-65.56419963 z M 242.83145,250.873 c -24.998,4.48 -23.842,21.79 -23.81,42.898 v 33.934 c 7.118,1.402 14.21,2.894 21.124,5.118 1.878,-2.452 3.288,-5.036 4.738,-7.75 12.926,-23.132 26.734,-48.174 32.048,-74.2 -11.336,0.05 -22.782,-0.4 -34.1,0 z"
     id="path1"
     style="stroke-width:2" />
  <path
     fill="#827d41"
     d="m 244.88345,213.095 c 12.482,0.154 24.346,2.764 36.67,4.322 v 17.822 l -25.456,-0.028 c -38.818,-0.034 -53.024,12.85 -53.036,51.92 l 0.028,23.456 v 15.31 c -7.302,0.42 -14.774,0.068 -22.092,0 l -0.028,-34.298 c 0.002,-47.28 11.062,-77.576 63.914,-78.504 z"
     id="path2"
     style="stroke-width:2" />
  <path
     fill="#be7d68"
     d="m 541.50745,741.403 c 21.748,0.652 72.484,12.332 73.692,40.124 0.578,13.26 -17.988,10.366 -26.168,10.32 l -30.648,-0.052 -41.856,0.048 c -12.226,0.004 -46.116,4.09 -28.986,-20.706 12.36,-17.892 33.472,-25.978 53.966,-29.734 z"
     id="path3"
     style="stroke-width:2" />
  <path
     fill="#be7d68"
     d="m 347.38145,741.403 c 22.774,-3.046 74.08,13.532 74.7,39.79 0.306,12.94 -20.686,10.666 -28.714,10.66 l -32.8,-0.058 -41.106,0.038 c -21.762,0.006 -50.234,0.226 -24.448,-27.558 13.276,-14.304 33.052,-22.148 52.368,-22.872 z"
     id="path4"
     style="stroke-width:2" />
  <path
     fill="#be7d68"
     d="m 724.12345,580.239 c 11.308,-2.102 23.784,4.396 27.766,15.408 2.832,7.828 -8.81,40.57 -11.24,49.672 -3.214,12.028 -5.208,39.162 -19.138,43.012 -8.716,2.408 -21.192,-6.9 -28.8,-11.01 -14.602,-7.738 -59.678,-23.214 -34.266,-46.362 8.974,-8.174 56.826,-47.862 65.678,-50.72 z"
     id="path5"
     style="stroke-width:2" />
  <path
     fill="#be7d68"
     d="m 433.83345,16.7344 c 45.662,-1.5998 106.47,5.409 138.08,40.7316 10.938,12.2234 7.82,25.5082 8.25,40.819 0.366,13.044 1.708,26.384 0.952,39.402 -24.37,-6.366 -44.024,-21.77 -61.654,-39.22 -4.22,-4.176 -14.752,-19.8252 -21.548,-13.9682 -14.082,12.1362 -20.092,23.6002 -38.076,35.7262 -3.876,2.452 -7.806,4.618 -11.9,6.686 -10.894,-6.418 -21.538,-13.422 -30.568,-22.354 -5.102,-5.048 -14.208,-17.0042 -19.29,-20.129 -10.072,-6.192 -37.286,43.559 -81.638,53.259 l -0.054,-36.246 c -0.07,-16.2908 -1.746,-30.3694 9.122,-43.8162 24.822,-30.7122 71.26,-37.1342 108.324,-40.8904 z"
     id="path6"
     style="stroke-width:2" />
  <path
     fill="#be7d68"
     d="m 502.64145,105.227 c 5.002,3.862 9.584,9.224 14.24,13.608 88.818,83.654 124.9,-9.86 150.04,-9.922 32.272,-0.084 19.234,81.202 -31.086,91.252 -8.192,1.636 -18.042,0.636 -26.422,0.628 l -248.846,-0.036 -47.578,0.032 c -14.986,0.004 -31.652,1.394 -46.194,-2.468 -34.412,-9.14 -67.918,-60.378 -42.466,-87.484 8.454,-9.004 17.37,2.76 23.166,8.602 56.352,56.792 96.512,35.848 147.072,-14.212 11.394,10.032 36.572,37.142 52.07,38.904 16.566,1.882 41.482,-28.22 55.24,-38.35 z"
     id="path7"
     style="stroke-width:2" />
  <path
     fill="#a9b959"
     d="m 181.67345,342.273 c 9.124,-1.314 19.016,-0.236 28.102,0.94 79.762,10.308 143.348,73.786 150.384,154.796 8.762,100.894 -65.232,179.326 -163.672,187.748 C 40.796649,688.269 -43.424951,506.725 65.111849,393.547 96.377449,360.943 136.93745,343.235 181.67345,342.273 Z"
     id="path8"
     style="stroke-width:2" />
  <path
     fill="#4a251e"
     d="m 181.67345,378.501 c 75.094,-5.23 137.96,57.706 140.374,131.454 2.398,73.262 -54.522,136.04 -128.374,138.306 -6.73,1.084 -14.476,-0.146 -21.172,-1.122 -162.9660007,-23.74 -153.080401,-257.402 9.172,-268.638 z"
     id="path9"
     style="stroke-width:2" />
  <path
     fill="#e7d0c4"
     d="m 178.02745,394.813 c 62.204,-5.564 117.868,41.014 126.91,102.236 10.22,69.204 -37.178,125.286 -105.256,134.76 C 96.141449,635.851 33.081249,525.077 93.479449,443.413 c 21.986001,-29.724 48.632001,-43.182 84.548001,-48.6 z"
     id="path10"
     style="stroke-width:2" />
  <path
     fill="#4a251e"
     d="m 186.11345,417.841 c 14.336,-0.618 10.458,15.814 10.374,25.482 13.602,0.336 22.506,0.464 33.51,9.418 20.082,16.336 18.656,39.804 3.074,58.5 18.552,14.956 22.038,42.908 4.598,60.488 -12.044,12.144 -25.21,11.6 -41.182,11.622 0.532,9.426 4.24,23.4 -8.696,24.726 -10.484,-4.084 -7.148,-15.572 -6.794,-24.726 -7.652,-0.076 -42.864,2.536 -47.508,-2.65 -10.448,-11.672 6.142,-14.05 14.564,-13.592 V 459.835 c -6.564,-0.404 -18.2,0.9 -18.474,-8.946 -0.274,-9.858 20.452,-7.622 26.28,-7.568 l 25.138,0.002 c -0.782,-9.186 -4.136,-19.802 5.116,-25.482 z"
     id="path11"
     style="stroke-width:2" />
  <path
     fill="#e7d0c4"
     d="m 164.11345,459.835 c 11.556,-0.032 35.87,-1.312 45.938,1.028 17.326,4.026 24.674,23.602 12.814,36.994 -10.822,10.386 -43.898,5.936 -58.752,5.91 z"
     id="path12"
     style="stroke-width:2" />
  <path
     fill="#e7d0c4"
     d="m 164.11345,520.379 29.624,-0.046 c 16.656,-0.018 37.53,-0.816 39.042,21.778 0.492,7.34 -2.552,13.176 -7.232,18.532 -12.654,10.864 -44.988,6.506 -61.434,6.466 -0.28,-15.556 -0.006,-31.166 0,-46.73 z"
     id="path13"
     style="stroke-width:2" />
  <path
     fill="#e7d0c4"
     d="m 297.60345,217.417 202.906,-0.002 c 33.748,0 67.682,-0.782 101.406,0.002 2.29,48.17 14.826,54.866 29.084,91.81 32.976,85.456 -19.274,171.896 -83.812,225.968 -20.488,17.354 -69.702,52.494 -98.166,50.46 -21.908,-1.566 -57.094,-21.086 -76.31,-32.032 18.59,-98.334 -27.532,-176.22 -115.91,-215.364 19.67,-44.938 40.672,-64.1 40.802,-120.842 z"
     id="path14"
     style="stroke-width:2" />
  <path
     fill="#4a251e"
     d="m 528.07345,248.437 c 24.856,-3.448 28.494,22.438 28.45,40.66 -0.04,16.7 -3.38,36.03 -24.01,36.8 -26.67,3.842 -30.056,-20.366 -29.924,-40.498 0.12,-18.474 3.896,-35.906 25.484,-36.962 z"
     id="path15"
     style="stroke-width:2" />
  <path
     fill="#827d41"
     d="m 526.06545,264.353 c 19.614,-2.548 14.99,29.02 13.988,41.52 -2.33,1.908 -4.91,3.272 -7.54,4.714 -21.124,1.698 -16.976,-40.69 -6.448,-46.234 z"
     id="path16"
     style="stroke-width:2" />
  <path
     fill="#4a251e"
     d="m 370.56745,248.437 c 19.956,-2.586 30.074,13.278 30.146,31.264 0.068,16.574 1.676,46.29 -22.234,46.196 -33.45,7.294 -34.538,-35.312 -30.518,-56.92 2.2,-11.818 11.086,-18.4 22.606,-20.54 z"
     id="path17"
     style="stroke-width:2" />
  <path
     fill="#827d41"
     d="m 372.71145,264.353 c 3.92,-0.08 8.524,1.092 10.37,4.948 3.292,6.868 5.98,35.394 -6.526,41.286 -4.504,0.332 -10.562,-0.708 -12.138,-5.668 -2.936,-9.23 -5.87,-36.554 8.294,-40.566 z"
     id="path18"
     style="stroke-width:2" />
  <path
     fill="#4a251e"
     d="m 353.08545,384.823 c 9.018,-0.672 10.652,6.648 14.85,13.298 33.266,52.702 125.674,55.08 163.716,7.468 3.652,-4.57 8.89,-15.442 14.436,-17.04 10.766,-3.104 11.624,9.078 6.112,17.65 -49.932,65.702 -158.924,67.108 -201.648,-4.368 -4.286,-7.17 -5.416,-12.668 2.534,-17.008 z"
     id="path19"
     style="stroke-width:2" />
</svg>
