<?xml version="1.0" encoding="utf-8" ?>
<svg xmlns="http://www.w3.org/2000/svg" xmlns:xlink="http://www.w3.org/1999/xlink" width="1024" height="1024">
	<path fill="#4A251E" transform="scale(2 2)" d="M276.482 53.3735L279.198 53.3545C301.912 53.3746 329.703 58.3768 346.313 75.1822C355.699 84.6785 353.519 90.9716 353.787 103.374C353.914 109.274 354.28 115.119 354.272 121.032C364.248 117.462 371.445 110.301 378.869 103.177C384.906 97.3854 394.938 98.9132 400.301 104.742C417.793 123.749 396.495 163.481 364.412 162.063C365.659 180.893 369.512 185.327 376.578 200.585C385.879 220.674 384.355 235.898 381.547 256.454C398.805 274.118 410.361 284.348 432.824 296.933C446.08 304.359 458.151 307.512 456.746 326.233C455.899 337.517 448.646 344.154 440.595 351.047C440.25 357.909 436.817 366.446 435.039 373.248L431.191 388.034C428.798 396.971 425.655 406.026 414.356 406.197C408.292 406.288 402.833 401.896 397.729 399.189C387.055 393.527 373.043 389.996 373.182 375.399C373.267 366.452 379.398 362.39 385.618 357.377L397.879 347.502C411.843 336.288 421.246 327.405 436.544 343.474C442.32 338.946 447.791 333.651 448.33 325.825C449.182 313.442 441.582 310.799 432.299 306.033C412.463 295.85 393.45 282.302 378.72 265.526C369.293 299.834 332.529 334.181 301.2 348.944L301.2 424.814C321.788 412.992 346.431 411.372 364.062 429.736C367.745 433.571 371.589 439.135 371.376 444.692C370.754 460.965 350.579 457.51 339.946 457.502C328.086 457.493 316.161 457.806 304.313 457.499L303.954 457.502C295.917 457.53 289.115 452.442 288.984 444.005C288.904 438.922 292.999 435.492 293.14 430.492C293.283 425.417 293.043 420.241 293.042 415.155L293.043 373.541C293.041 366.474 292.836 359.379 293.041 352.317C283.187 354.134 280.124 355.462 269.422 352.317L269.399 422.241C269.359 434.644 269.924 429.46 273.519 439.466C276.623 448.106 270.525 457.03 261.299 457.533C258.098 457.707 254.772 457.5 251.553 457.499L213.184 457.516C204.26 457.56 193.661 458.469 190.615 447.495C185.505 429.082 215.35 416.102 230.448 415.365C242.422 414.781 251.05 418.283 261.248 424.056L261.248 348.944C253.654 346.549 246.536 341.71 239.499 338.058C236.858 346.192 233.392 354.371 228.754 361.575C182.892 432.816 74.4824 409.784 57.5056 329.641C48.0445 284.978 72.3132 238.691 115.14 222.347C122.457 219.554 129.89 217.912 137.528 216.303C138.081 213.386 137.581 210.121 137.553 207.149C137.303 180.612 139.193 157.211 170.769 151.912C165.75 147.235 161.528 142.591 158.711 136.236C153.971 125.539 152.979 105.547 166.143 99.9885C176.572 95.5844 181.78 105.144 188.62 110.639C193.769 114.775 199.335 118.438 205.422 121.032C205.423 112.946 204.479 92.754 206.699 86.1556C215.034 61.3815 254.226 54.27 276.482 53.3735ZM176.887 178.791C164.388 181.031 164.966 189.686 164.982 200.24L164.982 217.207C168.541 217.908 172.087 218.654 175.544 219.766C176.483 218.54 177.188 217.248 177.913 215.891C184.376 204.325 191.28 191.804 193.937 178.791C188.269 178.816 182.546 178.591 176.887 178.791Z"/>
	<path fill="#827D41" transform="scale(2 2)" d="M177.913 159.902C184.154 159.979 190.086 161.284 196.248 162.063L196.248 170.974L183.52 170.96C164.111 170.943 157.008 177.385 157.002 196.92L157.016 208.648L157.016 216.303C153.365 216.513 149.629 216.337 145.97 216.303L145.956 199.154C145.957 175.514 151.487 160.366 177.913 159.902Z"/>
	<path fill="#BE7D68" transform="scale(2 2)" d="M326.225 424.056C337.099 424.382 362.467 430.222 363.071 444.118C363.36 450.748 354.077 449.301 349.987 449.278L334.663 449.252L313.735 449.276C307.622 449.278 290.677 451.321 299.242 438.923C305.422 429.977 315.978 425.934 326.225 424.056Z"/>
	<path fill="#BE7D68" transform="scale(2 2)" d="M229.162 424.056C240.549 422.533 266.202 430.822 266.512 443.951C266.665 450.421 256.169 449.284 252.155 449.281L235.755 449.252L215.202 449.271C204.321 449.274 190.085 449.384 202.978 435.492C209.616 428.34 219.504 424.418 229.162 424.056Z"/>
	<path fill="#BE7D68" transform="scale(2 2)" d="M417.533 343.474C423.187 342.423 429.425 345.672 431.416 351.178C432.832 355.092 427.011 371.463 425.796 376.014C424.189 382.028 423.192 395.595 416.227 397.52C411.869 398.724 405.631 394.07 401.827 392.015C394.526 388.146 371.988 380.408 384.694 368.834C389.181 364.747 413.107 344.903 417.533 343.474Z"/>
	<path fill="#BE7D68" transform="scale(2 2)" d="M272.388 61.7217C295.219 60.9218 325.623 64.4262 341.428 82.0875C346.897 88.1992 345.338 94.8416 345.553 102.497C345.736 109.019 346.407 115.689 346.029 122.198C333.844 119.015 324.017 111.313 315.202 102.588C313.092 100.5 307.826 92.6754 304.428 95.6039C297.387 101.672 294.382 107.404 285.39 113.467C283.452 114.693 281.487 115.776 279.44 116.81C273.993 113.601 268.671 110.099 264.156 105.633C261.605 103.109 257.052 97.1309 254.511 95.5685C249.475 92.4725 235.868 117.348 213.692 122.198L213.665 104.075C213.63 95.9296 212.792 88.8903 218.226 82.1669C230.637 66.8108 253.856 63.5998 272.388 61.7217Z"/>
	<path fill="#BE7D68" transform="scale(2 2)" d="M306.792 105.968C309.293 107.899 311.584 110.58 313.912 112.772C358.321 154.599 376.362 107.842 388.932 107.811C405.068 107.769 398.549 148.412 373.389 153.437C369.293 154.255 364.368 153.755 360.178 153.751L235.755 153.733L211.966 153.749C204.473 153.751 196.14 154.446 188.869 152.515C171.663 147.945 154.91 122.326 167.636 108.773C171.863 104.271 176.321 110.153 179.219 113.074C207.395 141.47 227.475 130.998 252.755 105.968C258.452 110.984 271.041 124.539 278.79 125.42C287.073 126.361 299.531 111.31 306.41 106.245L306.792 105.968Z"/>
	<path fill="#A9B959" transform="scale(2 2)" d="M146.308 224.491C150.87 223.834 155.816 224.373 160.359 224.961C200.24 230.115 232.033 261.854 235.551 302.359C239.932 352.806 202.935 392.022 153.715 396.233C75.8696 397.489 33.7588 306.717 88.0272 250.128C103.66 233.826 123.94 224.972 146.308 224.491Z"/>
	<path fill="#4A251E" transform="scale(2 2)" d="M146.308 242.605C183.855 239.99 215.288 271.458 216.495 308.332C217.694 344.963 189.234 376.352 152.308 377.485C148.943 378.027 145.07 377.412 141.722 376.924C60.239 365.054 65.1818 248.223 146.308 242.605Z"/>
	<path fill="#E7D0C4" transform="scale(2 2)" d="M144.485 250.761C175.587 247.979 203.419 271.268 207.94 301.879C213.05 336.481 189.351 364.522 155.312 369.259C103.542 371.28 72.0119 315.893 102.211 275.061C113.204 260.199 126.527 253.47 144.485 250.761Z"/>
	<path fill="#4A251E" transform="scale(2 2)" d="M148.528 262.275C155.696 261.966 153.757 270.182 153.715 275.016C160.516 275.184 164.968 275.248 170.47 279.725C180.511 287.893 179.798 299.627 172.007 308.975C181.283 316.453 183.026 330.429 174.306 339.219C168.284 345.291 161.701 345.019 153.715 345.03C153.981 349.743 155.835 356.73 149.367 357.393C144.125 355.351 145.793 349.607 145.97 345.03C142.144 344.992 124.538 346.298 122.216 343.705C116.992 337.869 125.287 336.68 129.498 336.909L129.498 283.272C126.216 283.07 120.398 283.722 120.261 278.799C120.124 273.87 130.487 274.988 133.401 275.015L145.97 275.016C145.579 270.423 143.902 265.115 148.528 262.275Z"/>
	<path fill="#E7D0C4" transform="scale(2 2)" d="M137.528 283.272C143.306 283.256 155.463 282.616 160.497 283.786C169.16 285.799 172.834 295.587 166.904 302.283C161.493 307.476 144.955 305.251 137.528 305.238L137.528 283.272Z"/>
	<path fill="#E7D0C4" transform="scale(2 2)" d="M137.528 313.544L152.34 313.521C160.668 313.512 171.105 313.113 171.861 324.41C172.107 328.08 170.585 330.998 168.245 333.676C161.918 339.108 145.751 336.929 137.528 336.909C137.388 329.131 137.525 321.326 137.528 313.544Z"/>
	<path fill="#E7D0C4" transform="scale(2 2)" d="M204.273 162.063L305.726 162.062C322.6 162.062 339.567 161.671 356.429 162.063C357.574 186.148 363.842 189.496 370.971 207.968C387.459 250.696 361.334 293.916 329.065 320.952C318.821 329.629 294.214 347.199 279.982 346.182C269.028 345.399 251.435 335.639 241.827 330.166C251.122 280.999 228.061 242.056 183.872 222.484C193.707 200.015 204.208 190.434 204.273 162.063Z"/>
	<path fill="#4A251E" transform="scale(2 2)" d="M319.508 177.573C331.936 175.849 333.755 188.792 333.733 197.903C333.713 206.253 332.043 215.918 321.728 216.303C308.393 218.224 306.7 206.12 306.766 196.054C306.826 186.817 308.714 178.101 319.508 177.573Z"/>
	<path fill="#827D41" transform="scale(2 2)" d="M318.504 185.531C328.311 184.257 325.999 200.041 325.498 206.291C324.333 207.245 323.043 207.927 321.728 208.648C311.166 209.497 313.24 188.303 318.504 185.531Z"/>
	<path fill="#4A251E" transform="scale(2 2)" d="M240.755 177.573C250.733 176.28 255.792 184.212 255.828 193.205C255.862 201.492 256.666 216.35 244.711 216.303C227.986 219.95 227.442 198.647 229.452 187.843C230.552 181.934 234.995 178.643 240.755 177.573Z"/>
	<path fill="#827D41" transform="scale(2 2)" d="M241.827 185.531C243.787 185.491 246.089 186.077 247.012 188.005C248.658 191.439 250.002 205.702 243.749 208.648C241.497 208.814 238.468 208.294 237.68 205.814C236.212 201.199 234.745 187.537 241.827 185.531Z"/>
	<path fill="#4A251E" transform="scale(2 2)" d="M232.014 245.766C236.523 245.43 237.34 249.09 239.439 252.415C256.072 278.766 302.276 279.955 321.297 256.149C323.123 253.864 325.742 248.428 328.515 247.629C333.898 246.077 334.327 252.168 331.571 256.454C306.605 289.305 252.109 290.008 230.747 254.27C228.604 250.685 228.039 247.936 232.014 245.766Z"/>
</svg>
